<?xml version="1.0" encoding="UTF-8" standalone="no"?>
<!-- Created with Inkscape (http://www.inkscape.org/) -->

<svg
   xmlns:dc="http://purl.org/dc/elements/1.1/"
   xmlns:cc="http://creativecommons.org/ns#"
   xmlns:rdf="http://www.w3.org/1999/02/22-rdf-syntax-ns#"
   xmlns:svg="http://www.w3.org/2000/svg"
   xmlns="http://www.w3.org/2000/svg"
   xmlns:sodipodi="http://sodipodi.sourceforge.net/DTD/sodipodi-0.dtd"
   xmlns:inkscape="http://www.inkscape.org/namespaces/inkscape"
   width="247.1163"
   height="71.631821"
   viewBox="0 0 65.382853 18.952586"
   version="1.1"
   id="svg8"
   inkscape:version="0.92.4 (5da689c313, 2019-01-14)"
   sodipodi:docname="Book360_Swoosh_Blue.svg">
  <defs
     id="defs2" />
  <sodipodi:namedview
     id="base"
     pagecolor="#ffffff"
     bordercolor="#666666"
     borderopacity="1.0"
     inkscape:pageopacity="0.0"
     inkscape:pageshadow="2"
     inkscape:zoom="1.4710938"
     inkscape:cx="37.724166"
     inkscape:cy="31.124662"
     inkscape:document-units="px"
     inkscape:current-layer="layer1"
     showgrid="false"
     width="120mm"
     units="px"
     fit-margin-top="0"
     fit-margin-left="0"
     fit-margin-right="0"
     fit-margin-bottom="0"
     inkscape:window-width="1366"
     inkscape:window-height="705"
     inkscape:window-x="-8"
     inkscape:window-y="-8"
     inkscape:window-maximized="1" />
  <metadata
     id="metadata5">
    <rdf:RDF>
      <cc:Work
         rdf:about="">
        <dc:format>image/svg+xml</dc:format>
        <dc:type
           rdf:resource="http://purl.org/dc/dcmitype/StillImage" />
        <dc:title></dc:title>
      </cc:Work>
    </rdf:RDF>
  </metadata>
  <g
     inkscape:label="Layer 1"
     inkscape:groupmode="layer"
     id="layer1"
     transform="translate(-5.2340228,-270.3358)">
    <g
       aria-label="Book360"
       style="font-style:normal;font-weight:normal;font-size:9.4101305px;line-height:1.25;font-family:sans-serif;letter-spacing:0px;word-spacing:0px;fill:#53afd7;fill-opacity:1;stroke:none;stroke-width:0.23525323"
       id="text12"
       transform="matrix(2.0593026,0,0,2.0593026,-5.5444135,-293.2369)">
      <path
         d="m 6.3505567,276.32283 q -0.2986614,0.54218 -0.5329957,0.81328 -0.2343343,0.27109 -0.3813676,0.27109 -0.2021708,0 -0.2021708,-0.46408 0,-0.45028 0.1286542,-0.80868 0.1286541,-0.35839 0.3629884,-0.63408 0.2297395,-0.28028 0.54678,-0.47326 0.3216354,-0.19758 0.6984082,-0.32164 0.3813676,-0.12865 0.8040883,-0.18838 0.4227207,-0.0597 0.8684153,-0.0597 0.5192113,0 1.0430174,0.0781 0.5238066,0.0735 1.0062586,0.21136 0.482453,0.13785 0.900579,0.33542 0.418126,0.19299 0.725977,0.43191 0.312446,0.23434 0.487048,0.51003 0.179197,0.27568 0.179197,0.57435 0,0.35379 -0.156223,0.6984 -0.151628,0.34461 -0.482453,0.62489 -0.32623,0.27569 -0.840847,0.45489 -0.510021,0.1792 -1.226809,0.19298 0.454885,0 0.794899,0.14703 0.340015,0.14244 0.569754,0.39056 0.22974,0.24352 0.344609,0.58813 0.11487,0.34002 0.11487,0.69382 0,0.28947 -0.07811,0.58813 -0.07811,0.29866 -0.234335,0.57435 -0.156223,0.27569 -0.390557,0.51921 -0.234334,0.23893 -0.551375,0.41813 -0.312445,0.17919 -0.707597,0.28028 -0.3951523,0.10568 -0.8684157,0.10568 -0.2986614,0 -0.6294863,-0.0414 -0.3308249,-0.0368 -0.6708394,-0.10568 -0.3354196,-0.0643 -0.6616498,-0.15623 -0.3262301,-0.0919 -0.6157019,-0.19757 -0.1286541,-0.0322 -0.2297395,-0.0965 -0.096491,-0.0643 -0.096491,-0.22974 0,-0.76274 0.036758,-1.56223 0.041353,-0.7995 0.1608176,-1.58061 0.1194646,-0.78571 0.3216353,-1.36465 0.2021708,-0.57895 0.5743488,-1.12573 0.3262301,-0.22514 0.592728,-0.22514 0.3354197,0 0.5605644,0.37677 -0.2113604,0.28488 -0.3629885,0.63408 -0.1470332,0.34921 -0.2251447,0.6203 -0.078111,0.27109 -0.1424385,0.67084 -0.059732,0.39975 -0.096491,0.78111 -0.022974,0.21596 -0.041353,0.48246 -0.013784,0.2619 -0.027569,0.51461 -0.013784,0.25272 -0.022974,0.50543 -0.00459,0.24812 -0.00459,0.47786 0,0.0368 0,0.10108 0,0.0643 0.00919,0.13325 0.013784,0.0689 0.032163,0.12866 0.018379,0.0551 0.055137,0.0827 0.2802822,0.0919 0.6019176,0.15623 0.3216353,0.0643 0.6432706,0.0643 0.3905572,0 0.7581404,-0.0919 0.3675836,-0.0965 0.6524606,-0.29866 0.284877,-0.20677 0.454884,-0.52381 0.174602,-0.32164 0.174602,-0.81787 0,-0.2665 -0.101085,-0.4411 -0.101086,-0.1792 -0.266498,-0.29866 -0.160818,-0.11947 -0.372178,-0.18839 -0.206766,-0.0735 -0.4273158,-0.12866 -0.2159552,-0.0597 -0.4273155,-0.11487 -0.2067656,-0.0551 -0.3721781,-0.13784 -0.1608176,-0.0873 -0.261903,-0.21136 -0.1010854,-0.12865 -0.1010854,-0.33082 0,-0.0965 0.00919,-0.16542 0.013784,-0.0735 0.055138,-0.11946 0.045948,-0.046 0.1286541,-0.0689 0.087301,-0.023 0.2343343,-0.023 0.197576,0 0.3583936,0.0184 0.1654125,0.0138 0.3537989,0.0138 0.4410999,0 0.7948989,-0.10568 0.358394,-0.11028 0.606512,-0.29407 0.252714,-0.18379 0.385963,-0.42732 0.137844,-0.24811 0.137844,-0.5284 0,-0.18379 -0.105681,-0.33542 -0.10568,-0.15622 -0.298661,-0.27568 -0.188386,-0.12406 -0.445695,-0.21596 -0.257308,-0.0919 -0.560564,-0.15163 -0.303256,-0.0643 -0.6386762,-0.0919 -0.3354197,-0.0322 -0.680029,-0.0322 -0.5559696,0 -0.8638206,0.0368 -0.4227207,0.046 -0.7903039,0.14704 -0.3629884,0.0965 -0.6478654,0.25271 -0.2802822,0.15622 -0.4273155,0.3538 z"
         style="font-style:normal;font-variant:normal;font-weight:normal;font-stretch:normal;font-family:Pacifico;-inkscape-font-specification:Pacifico;fill:#53afd7;fill-opacity:1;stroke-width:0.23525323"
         id="path14"
         inkscape:connector-curvature="0" />
      <path
         d="m 15.779066,278.89132 q 0.133249,0.26649 0.197576,0.56515 0.06892,0.29407 0.06892,0.66625 0,0.27109 -0.05973,0.54678 -0.05973,0.27569 -0.174602,0.533 -0.110275,0.2573 -0.275688,0.48245 -0.160817,0.22514 -0.372178,0.39056 -0.206765,0.16541 -0.454884,0.2619 -0.248119,0.0965 -0.528401,0.0965 -0.404341,0 -0.693813,-0.1746 -0.284877,-0.1792 -0.468669,-0.46408 -0.183791,-0.28487 -0.271092,-0.64327 -0.08271,-0.35839 -0.08271,-0.72597 0,-0.60652 0.151629,-1.04302 0.151628,-0.4411 0.43191,-0.76274 0.284877,-0.32623 0.693813,-0.51002 0.408937,-0.18839 0.918958,-0.18839 0.436505,0 0.817873,0.13785 0.381368,0.13325 0.712192,0.36299 0.33542,0.22514 0.620297,0.56975 0.289472,0.34461 0.537591,0.65706 l -0.0873,0.64786 q -0.12406,-0.16541 -0.33542,-0.35839 -0.211361,-0.19298 -0.45029,-0.42732 -0.234334,-0.23433 -0.464073,-0.39515 -0.22974,-0.16541 -0.395152,-0.27569 z m -1.41979,2.66038 q 0.156223,0 0.303256,-0.15622 0.147034,-0.16082 0.257309,-0.39975 0.110274,-0.24352 0.174602,-0.58354 0.06892,-0.34461 0.06892,-0.61111 0,-0.21136 -0.03216,-0.39055 -0.03216,-0.18379 -0.09649,-0.31704 -0.06433,-0.13325 -0.165412,-0.21136 -0.101086,-0.0781 -0.243524,-0.0781 -0.188386,0 -0.358394,0.16082 -0.170007,0.16082 -0.298661,0.41353 -0.128654,0.24812 -0.202171,0.55138 -0.07352,0.30325 -0.07352,0.68462 0,0.19298 0.03676,0.36299 0.03676,0.17001 0.11487,0.29866 0.07811,0.12406 0.206765,0.20217 0.128654,0.0735 0.30785,0.0735 z"
         style="font-style:normal;font-variant:normal;font-weight:normal;font-stretch:normal;font-family:Pacifico;-inkscape-font-specification:Pacifico;fill:#53afd7;fill-opacity:1;stroke-width:0.23525323"
         id="path16"
         inkscape:connector-curvature="0" />
      <path
         d="m 19.748965,278.89132 q 0.133249,0.26649 0.197576,0.56515 0.06892,0.29407 0.06892,0.66625 0,0.27109 -0.05973,0.54678 -0.05973,0.27569 -0.174602,0.533 -0.110275,0.2573 -0.275688,0.48245 -0.160818,0.22514 -0.372178,0.39056 -0.206765,0.16541 -0.454884,0.2619 -0.248119,0.0965 -0.528401,0.0965 -0.404342,0 -0.693813,-0.1746 -0.284877,-0.1792 -0.468669,-0.46408 -0.183792,-0.28487 -0.271093,-0.64327 -0.08271,-0.35839 -0.08271,-0.72597 0,-0.60652 0.151628,-1.04302 0.151628,-0.4411 0.431911,-0.76274 0.284877,-0.32623 0.693813,-0.51002 0.408936,-0.18839 0.918958,-0.18839 0.436505,0 0.817873,0.13785 0.381367,0.13325 0.712192,0.36299 0.33542,0.22514 0.620297,0.56975 0.289472,0.34461 0.53759,0.65706 l -0.0873,0.64786 q -0.124059,-0.16541 -0.335419,-0.35839 -0.211361,-0.19298 -0.45029,-0.42732 -0.234334,-0.23433 -0.464074,-0.39515 -0.229739,-0.16541 -0.395152,-0.27569 z m -1.41979,2.66038 q 0.156223,0 0.303256,-0.15622 0.147033,-0.16082 0.257308,-0.39975 0.110275,-0.24352 0.174602,-0.58354 0.06892,-0.34461 0.06892,-0.61111 0,-0.21136 -0.03216,-0.39055 -0.03216,-0.18379 -0.09649,-0.31704 -0.06433,-0.13325 -0.165412,-0.21136 -0.101086,-0.0781 -0.243524,-0.0781 -0.188387,0 -0.358394,0.16082 -0.170007,0.16082 -0.298661,0.41353 -0.128655,0.24812 -0.202171,0.55138 -0.07352,0.30325 -0.07352,0.68462 0,0.19298 0.03676,0.36299 0.03676,0.17001 0.114869,0.29866 0.07811,0.12406 0.206766,0.20217 0.128654,0.0735 0.307851,0.0735 z"
         style="font-style:normal;font-variant:normal;font-weight:normal;font-stretch:normal;font-family:Pacifico;-inkscape-font-specification:Pacifico;fill:#53afd7;fill-opacity:1;stroke-width:0.23525323"
         id="path18"
         inkscape:connector-curvature="0" />
      <path
         d="m 22.37259,279.86541 q 0.165412,-0.21136 0.362988,-0.46407 0.197576,-0.25272 0.385962,-0.48246 0.192982,-0.22974 0.385963,-0.47785 0.192981,-0.24812 0.284877,-0.31245 0.142438,-0.10108 0.349204,-0.17001 0.206765,-0.0735 0.459479,-0.0735 0.128654,0 0.243524,0.0597 0.119464,0.0597 0.206765,0.17001 0.0873,0.11027 0.137844,0.26649 0.05054,0.15623 0.05054,0.34921 0,0.18838 -0.128654,0.45029 -0.12406,0.25731 -0.261903,0.45029 -0.137844,0.19298 -0.298662,0.38596 -0.160817,0.19298 -0.298661,0.39056 -0.137844,0.19298 -0.22974,0.38596 -0.0919,0.19298 -0.0919,0.38596 0,0.16541 0.07811,0.23893 0.08271,0.0689 0.252713,0.0689 0.0919,0 0.197576,-0.0597 0.110275,-0.0643 0.225145,-0.16541 0.11487,-0.10109 0.22974,-0.22515 0.119464,-0.12406 0.225144,-0.25271 0.110275,-0.12865 0.206766,-0.24352 0.09649,-0.11947 0.174602,-0.20218 l 0.275687,1.12573 q -0.142438,0.20676 -0.362988,0.38596 -0.215955,0.1746 -0.473263,0.30785 -0.252714,0.12866 -0.528401,0.20217 -0.271093,0.0735 -0.523806,0.0735 -0.330825,0 -0.542186,-0.0781 -0.206765,-0.0827 -0.32623,-0.21596 -0.119464,-0.13325 -0.165412,-0.29866 -0.04135,-0.17001 -0.04135,-0.3492 0,-0.10568 0.02297,-0.25731 0.02757,-0.15622 0.09649,-0.34921 0.07352,-0.19298 0.202171,-0.42272 0.128654,-0.23433 0.33542,-0.50083 0.08271,-0.0827 0.151628,-0.14703 0.06892,-0.0689 0.119464,-0.11947 0.05054,-0.0551 0.07811,-0.10108 0.02757,-0.046 0.02757,-0.0965 0,-0.0965 -0.03676,-0.15622 -0.03216,-0.0597 -0.09649,-0.0597 -0.07811,0 -0.202171,0.10109 -0.128654,0.10568 -0.271093,0.3538 l -1.350868,2.37091 q -0.110275,0.1792 -0.22055,0.25271 -0.110275,0.0735 -0.257308,0.0735 -0.197576,0 -0.312446,-0.0827 -0.11487,-0.0873 -0.174602,-0.22974 -0.05973,-0.14703 -0.07811,-0.33542 -0.01378,-0.19298 -0.01378,-0.40893 0,-0.26191 0.01838,-0.69382 0.01838,-0.43191 0.05514,-0.94652 0.03676,-0.51921 0.09649,-1.08437 0.06433,-0.56516 0.151628,-1.09816 0.03216,-0.18838 0.08271,-0.45488 0.05054,-0.2711 0.124059,-0.57895 0.07811,-0.30785 0.179197,-0.63867 0.10568,-0.33542 0.238929,-0.64787 0.137844,-0.31704 0.307851,-0.60191 0.170007,-0.28488 0.381367,-0.49624 0.211361,-0.21596 0.464074,-0.34002 0.252714,-0.12406 0.551375,-0.12406 0.234334,0 0.385962,0.0781 0.151629,0.0735 0.23893,0.21136 0.0919,0.13324 0.128654,0.32163 0.03676,0.18839 0.03676,0.40894 0,0.39055 -0.101085,0.84084 -0.09649,0.45029 -0.248119,0.90518 -0.151628,0.45029 -0.330825,0.8776 -0.179197,0.42732 -0.344609,0.77193 -0.165413,0.34461 -0.294067,0.58354 -0.124059,0.23433 -0.165412,0.30785 l -0.54678,0.81787 z m 0.900579,-5.15995 q -0.147034,0 -0.252714,0.0919 -0.10568,0.0919 -0.202171,0.2619 -0.09189,0.17001 -0.188386,0.41353 -0.0919,0.24353 -0.21136,0.54219 -0.07352,0.2619 -0.137844,0.54218 -0.05973,0.28028 -0.110275,0.56057 -0.05054,0.27568 -0.0919,0.54678 -0.03676,0.27109 -0.06433,0.51002 -0.06892,0.56516 -0.110275,1.11194 0.101085,-0.30326 0.22055,-0.65706 0.119465,-0.35839 0.234334,-0.703 0.119465,-0.3492 0.22055,-0.65706 0.10568,-0.31244 0.174602,-0.5284 0.03216,-0.10108 0.0919,-0.25271 0.05973,-0.15163 0.128654,-0.32623 0.06892,-0.1746 0.137844,-0.36299 0.06892,-0.18838 0.124059,-0.36299 0.05973,-0.1746 0.09649,-0.32623 0.03676,-0.15162 0.03676,-0.25731 0,-0.14703 -0.09649,-0.14703 z"
         style="font-style:normal;font-variant:normal;font-weight:normal;font-stretch:normal;font-family:Pacifico;-inkscape-font-specification:Pacifico;fill:#53afd7;fill-opacity:1;stroke-width:0.23525323"
         id="path20"
         inkscape:connector-curvature="0" />
      <path
         d="m 25.901389,281.2898 q -0.01838,0.15622 0.0046,0.26649 0.02297,0.11028 0.07352,0.1792 0.05054,0.0689 0.119464,0.10109 0.07352,0.0322 0.156223,0.0322 0.119465,0 0.294067,-0.0551 0.179197,-0.0597 0.284877,-0.16082 0.110275,-0.10108 0.188386,-0.23892 0.07811,-0.14244 0.0919,-0.30326 0.02757,-0.2619 -0.01838,-0.54678 -0.04595,-0.28947 -0.165413,-0.39975 -0.119464,-0.11487 -0.31704,-0.1746 -0.192981,-0.0597 -0.454884,-0.0873 -0.147034,-0.009 -0.206766,-0.0597 -0.05973,-0.0551 -0.05054,-0.13325 0.0046,-0.0643 0.02757,-0.13785 0.02297,-0.0781 0.06433,-0.14243 0.04135,-0.0689 0.10568,-0.11028 0.06433,-0.046 0.147034,-0.046 0.183791,0 0.335419,-0.0689 0.156223,-0.0689 0.275688,-0.30785 0.119464,-0.24352 0.183791,-0.36758 0.06433,-0.12866 0.07811,-0.24812 0.01378,-0.15622 -0.07352,-0.2665 -0.0873,-0.11027 -0.298661,-0.11027 -0.165413,0 -0.289472,0.0781 -0.119465,0.0781 -0.128654,0.18379 -0.0046,0.0551 0.02757,0.11487 0.03676,0.0597 0.124059,0.11027 0.04595,0.0276 0.04135,0.0597 0,0.0367 -0.07352,0.0735 -0.06892,0.0322 -0.160817,0.0597 -0.0873,0.023 -0.170007,0.0414 -0.07811,0.0138 -0.105681,0.0138 -0.05514,0 -0.10568,-0.023 -0.05054,-0.0276 -0.0919,-0.0873 -0.03676,-0.0597 -0.05514,-0.16082 -0.01838,-0.10109 -0.0046,-0.25271 0.02757,-0.28948 0.151628,-0.48705 0.128654,-0.19758 0.317041,-0.31245 0.188386,-0.11487 0.418126,-0.17 0.229739,-0.0551 0.468668,-0.0551 0.257308,0 0.500832,0.0643 0.243524,0.0597 0.427316,0.1792 0.183791,0.11487 0.289472,0.28947 0.10568,0.17001 0.07811,0.4457 -0.0092,0.12865 -0.05514,0.28488 -0.04595,0.15162 -0.147034,0.30325 -0.09649,0.15163 -0.280282,0.45029 -0.179197,0.29407 -0.4411,0.38596 0.275688,0.0735 0.459479,0.22055 0.188387,0.14244 0.294067,0.34002 0.110275,0.19298 0.142438,0.53299 0.03676,0.33542 0.01379,0.57435 -0.02297,0.24353 -0.170008,0.48705 -0.147033,0.23893 -0.390557,0.43191 -0.238929,0.18839 -0.555969,0.30785 -0.317041,0.11947 -0.680029,0.11947 -0.519212,0 -0.817873,-0.0919 -0.294067,-0.0919 -0.473263,-0.2619 -0.179197,-0.17001 -0.248119,-0.40434 -0.06433,-0.23893 -0.03676,-0.52381 0.01838,-0.1746 0.07811,-0.28947 0.06433,-0.11947 0.156223,-0.18839 0.09649,-0.0735 0.215955,-0.10108 0.119465,-0.0322 0.243524,-0.0322 0.10568,0 0.234334,0.0276 0.133249,0.023 0.243524,0.0643 0.110275,0.0414 0.183792,0.0919 0.07352,0.0505 0.06892,0.0965 -0.0046,0.0368 -0.0873,0.0597 -0.07811,0.023 -0.179197,0.0643 -0.101086,0.0368 -0.183792,0.10109 -0.08271,0.0597 -0.0919,0.17001 z"
         style="font-style:normal;font-variant:normal;font-weight:normal;font-stretch:normal;font-family:Pacifico;-inkscape-font-specification:Pacifico;fill:#53afd7;fill-opacity:1;stroke-width:0.23525323"
         id="path22"
         inkscape:connector-curvature="0" />
      <path
         d="m 31.617308,280.44895 q 0,-0.29866 -0.101085,-0.45488 -0.101086,-0.16082 -0.257309,-0.16082 -0.114869,0 -0.192981,0.0597 -0.07811,0.0551 -0.133249,0.14244 -0.05514,0.0827 -0.09649,0.18379 -0.04135,0.10109 -0.08271,0.18839 -0.04135,0.0827 -0.0873,0.14243 -0.04595,0.0551 -0.110275,0.0551 -0.02297,0 -0.05514,-0.10568 -0.02757,-0.11027 -0.02757,-0.27109 0,-0.25271 0.101086,-0.45488 0.10568,-0.20218 0.271092,-0.34002 0.165413,-0.14244 0.376773,-0.21595 0.21136,-0.0781 0.43191,-0.0781 0.211361,0 0.408937,0.0735 0.197576,0.0735 0.353798,0.22974 0.156223,0.15163 0.248119,0.39056 0.09649,0.23893 0.09649,0.56975 0,0.36758 -0.142439,0.73057 -0.142438,0.36299 -0.408936,0.65246 -0.266498,0.28948 -0.647866,0.46867 -0.381367,0.1792 -0.86382,0.1792 -0.33542,0 -0.657055,-0.0965 -0.321635,-0.10109 -0.574349,-0.32164 -0.252713,-0.22055 -0.408936,-0.56975 -0.151628,-0.34921 -0.151628,-0.85004 0,-0.56975 0.215955,-1.11194 0.22055,-0.54218 0.597323,-1.01545 0.376772,-0.47785 0.886794,-0.86841 0.510022,-0.39515 1.088965,-0.66625 0.0919,-0.0413 0.170008,-0.0643 0.08271,-0.0276 0.165412,-0.0276 0.202171,0 0.317041,0.10568 0.114869,0.10108 0.114869,0.24812 0,0.10568 -0.06433,0.21595 -0.05973,0.11028 -0.206765,0.21136 -0.408937,0.24353 -0.799494,0.59273 -0.385962,0.34461 -0.689218,0.75814 -0.298662,0.41353 -0.482453,0.87761 -0.183792,0.45948 -0.183792,0.92355 0,0.1792 0.03216,0.34001 0.03676,0.16082 0.114869,0.28488 0.08271,0.12406 0.211361,0.19758 0.128654,0.0689 0.321635,0.0689 0.197576,0 0.362988,-0.11028 0.170008,-0.11487 0.284877,-0.28947 0.119465,-0.17919 0.183792,-0.39515 0.06892,-0.21595 0.06892,-0.42272 z"
         style="font-style:normal;font-variant:normal;font-weight:normal;font-stretch:normal;font-family:Pacifico;-inkscape-font-specification:Pacifico;fill:#53afd7;fill-opacity:1;stroke-width:0.23525323"
         id="path24"
         inkscape:connector-curvature="0" />
      <path
         d="m 34.911773,282.4339 q -0.353799,0 -0.620297,-0.15163 -0.261903,-0.15622 -0.436505,-0.41353 -0.174602,-0.2619 -0.261903,-0.60192 -0.0873,-0.34461 -0.0873,-0.72597 0,-0.33542 0.05973,-0.68463 0.06433,-0.3538 0.183792,-0.68003 0.119464,-0.33082 0.294066,-0.62029 0.179197,-0.29407 0.408937,-0.51003 0.229739,-0.22055 0.510021,-0.34461 0.284877,-0.12865 0.615702,-0.12865 0.381368,0 0.657055,0.14703 0.280283,0.14244 0.427316,0.39056 0.151628,0.24812 0.234334,0.57894 0.0873,0.32623 0.0873,0.69382 0,0.34001 -0.06892,0.69841 -0.06433,0.35839 -0.165412,0.6984 -0.09649,0.34002 -0.284877,0.64328 -0.183792,0.29866 -0.422721,0.5238 -0.234334,0.22515 -0.519211,0.35839 -0.284877,0.12866 -0.611107,0.12866 z m 0.07352,-0.83625 q 0.12406,0 0.243524,-0.11028 0.119465,-0.11487 0.225145,-0.30325 0.10568,-0.18839 0.192981,-0.43191 0.0919,-0.24353 0.156223,-0.50084 0.06433,-0.2619 0.101085,-0.51921 0.03676,-0.25731 0.03676,-0.47326 0,-0.1792 -0.02297,-0.33542 -0.02297,-0.15622 -0.06892,-0.27109 -0.04595,-0.11487 -0.119465,-0.1792 -0.06892,-0.0689 -0.170007,-0.0689 -0.137844,0 -0.261903,0.11487 -0.119464,0.11027 -0.225145,0.29406 -0.101085,0.1838 -0.183791,0.42272 -0.07811,0.23893 -0.137844,0.49624 -0.05514,0.25272 -0.0873,0.50543 -0.02757,0.24812 -0.02757,0.45948 0,0.19298 0.01838,0.35839 0.02297,0.16082 0.06433,0.28488 0.04595,0.11946 0.110275,0.18839 0.06892,0.0689 0.156222,0.0689 z"
         style="font-style:normal;font-variant:normal;font-weight:normal;font-stretch:normal;font-family:Pacifico;-inkscape-font-specification:Pacifico;fill:#53afd7;fill-opacity:1;stroke-width:0.23525323"
         id="path26"
         inkscape:connector-curvature="0" />
    </g>
  </g>
</svg>
