<?xml version="1.0" encoding="UTF-8" standalone="no"?>
<svg
   xmlns:dc="http://purl.org/dc/elements/1.1/"
   xmlns:cc="http://creativecommons.org/ns#"
   xmlns:rdf="http://www.w3.org/1999/02/22-rdf-syntax-ns#"
   xmlns:svg="http://www.w3.org/2000/svg"
   xmlns="http://www.w3.org/2000/svg"
   xmlns:sodipodi="http://sodipodi.sourceforge.net/DTD/sodipodi-0.dtd"
   xmlns:inkscape="http://www.inkscape.org/namespaces/inkscape"
   version="1.0"
   width="120"
   height="60"
   viewBox="0 0 1200 600"
   preserveAspectRatio="xMidYMid meet"
   id="svg9"
   sodipodi:docname="Book360-Swoosh.svg"
   inkscape:version="0.92.4 (5da689c313, 2019-01-14)">
  <metadata
     id="metadata15">
    <rdf:RDF>
      <cc:Work
         rdf:about="">
        <dc:format>image/svg+xml</dc:format>
        <dc:type
           rdf:resource="http://purl.org/dc/dcmitype/StillImage" />
        <dc:title></dc:title>
      </cc:Work>
    </rdf:RDF>
  </metadata>
  <defs
     id="defs13" />
  <sodipodi:namedview
     pagecolor="#ffffff"
     bordercolor="#666666"
     borderopacity="1"
     objecttolerance="10"
     gridtolerance="10"
     guidetolerance="10"
     inkscape:pageopacity="0"
     inkscape:pageshadow="2"
     inkscape:window-width="1366"
     inkscape:window-height="705"
     id="namedview11"
     showgrid="false"
     inkscape:zoom="2.4323372"
     inkscape:cx="104.86859"
     inkscape:cy="72.877566"
     inkscape:window-x="-8"
     inkscape:window-y="-8"
     inkscape:window-maximized="1"
     inkscape:current-layer="svg9" />
  <g
     id="g82">
    <g
       transform="matrix(0.13540967,0,0,0.13540967,-105.61954,-167.40839)"
       style="fill:#ffffff;stroke:none"
       id="layer103">
      <path
         inkscape:connector-curvature="0"
         style="fill:#ffffff"
         id="path2"
         d="m 2520,5299 c -173,-20 -293,-88 -420,-239 -99,-117 -150,-271 -166,-497 -7,-108 -2,-120 31,-83 11,12 33,28 50,36 31,14 32,18 44,110 52,397 238,614 527,614 127,0 370,-63 568,-146 44,-19 83,-34 87,-34 3,0 30,13 59,29 l 52,29 -58,22 c -341,129 -588,180 -774,159 z" />
      <path
         inkscape:connector-curvature="0"
         style="fill:#ffffff"
         id="path4"
         d="m 3476,4965 c -36,-12 -136,-99 -136,-117 0,-10 75,-48 95,-48 9,0 34,9 57,21 23,12 50,18 62,15 31,-8 139,-97 129,-107 -4,-4 -57,-29 -118,-54 -60,-26 -113,-50 -117,-54 -11,-10 32,-67 65,-86 25,-15 41,-15 205,0 97,10 199,15 225,11 33,-3 91,-28 182,-76 145,-77 219,-97 244,-67 23,29 3,73 -72,153 -112,120 -275,232 -492,339 -174,86 -244,101 -329,70 z" />
      <path
         sodipodi:nodetypes="ccccsccsccccccsccscccccccscsccccccscsccccccsccccccccsccccccccccccccccccccccccccccscccsccscccccccscccccsccccccccccccccccscsscccccccccccccc"
         inkscape:connector-curvature="0"
         style="fill:#ffffff"
         id="path6"
         d="m 2072,4269 c -145,-72 -201,-208 -167,-401 21,-123 101,-299 191,-425 l 16,-22 h -109 c -60,0 -121,-3 -135,-6 -23,-6 -28,-3 -32,17 -42,219 -101,355 -236,544 -55,77 -222,227 -291,260 -164,81 -320,65 -420,-43 -52,-56 -66,-83 -78,-149 -28,-155 38,-341 240,-675 48,-80 103,-172 122,-205 19,-32 67,-115 106,-184 76,-133 155,-289 148,-296 -7,-7 -188,95 -304,172 -132,87 -189,114 -260,121 -60,6 -83,-6 -83,-43 0,-49 107,-138 335,-281 195,-122 428,-230 575,-266 158,-39 330,-38 422,1 54,24 126,85 140,122 6,14 16,49 23,78 17,67 0,157 -47,243 -61,115 -228,256 -375,316 -23,10 -43,21 -43,25 0,10 63,42 137,70 48,19 78,23 178,23 132,0 121,4 220,-76 62,-50 176,-105 235,-114 25,-4 54,-13 65,-19 88,-55 239,23 296,153 19,42 83,62 213,69 146,6 197,-6 280,-69 116,-88 221,-139 286,-139 14,0 35,-7 46,-15 29,-22 98,-18 152,9 54,27 117,92 137,140 12,29 23,35 88,55 59,17 94,21 172,19 l 98,-3 44,-80 c 76,-136 242,-471 279,-562 45,-113 55,-123 116,-123 41,0 54,5 79,29 35,35 37,64 9,152 -24,78 -160,357 -299,613 -56,104 -99,192 -94,195 4,4 30,13 57,19 45,12 51,11 90,-12 115,-67 310,-246 425,-389 57,-70 93,-90 145,-80 42,8 76,57 76,108 0,43 -4,48 -107,152 -123,123 -249,216 -373,275 -47,23 -86,42 -88,43 -1,1 10,29 25,61 27,58 28,62 26,227 -3,190 -1,195 64,156 83,-50 296,-275 429,-454 286,-383 474,-761 540,-1085 18,-90 18,-281 -1,-355 -53,-206 -197,-360 -419,-449 -117,-47 -210,-59 -396,-53 -154,6 -192,11 -340,51 -290,76 -585,216 -920,434 -401.8677,272.6238 -551.7448,430.3161 -866,743 -35.3522,-17.2434 -76.8648,-31.3245 -113,-27 -33,6 -20,-10 184,-210 351,-344 542,-494 880,-689 566,-326 1118,-441 1513,-315 209,66 430,244 515,412 142,284 89,652 -160,1103 -104,188 -312,495 -473,700 -31,38 -81,104 -112,146 -31,41 -101,122 -155,178 l -100,104 -65,-5 c -50,-3 -75,-10 -106,-31 -95,-62 -125,-155 -110,-332 14,-156 4,-182 -82,-206 -25,-7 -55,-21 -66,-31 l -22,-20 -57,99 c -97,165 -226,385 -262,445 -42,71 -65,88 -121,88 -37,0 -49,-5 -74,-32 -45,-48 -36,-87 60,-250 168,-284 332,-571 332,-581 0,-2 -62,-4 -137,-3 l -138,1 -8,45 c -66,364 -309,706 -566,796 -79,28 -173,31 -251,8 -79,-23 -172,-118 -196,-199 -43,-149 16,-377 152,-588 24,-37 44,-70 44,-73 0,-3 -10,-2 -22,2 -13,4 -79,8 -147,8 l -125,1 -17,90 c -59,323 -289,642 -536,745 -60,25 -85,30 -156,30 -74,0 -91,-4 -145,-31 z m 254,-210 c 29,-14 86,-60 140,-114 126,-125 213,-264 268,-428 38,-112 35,-134 -20,-187 -25,-25 -52,-60 -59,-77 -17,-39 -25,-40 -90,-9 -143,68 -297,275 -430,581 -23,52 -31,181 -13,215 30,55 113,63 204,19 z m 1074,16 c 62,-22 137,-74 195,-136 123,-131 241,-341 272,-482 l 16,-74 -43,-39 c -24,-22 -52,-58 -62,-81 -11,-24 -26,-43 -35,-43 -67,0 -248,160 -337,297 -102,158 -186,364 -186,454 0,45 4,55 34,85 39,39 76,44 146,19 z m -2200,-27 c 198,-99 419,-433 437,-664 5,-60 5,-61 -33,-92 -140,-116 -140,-223 1,-258 33,-9 78,-20 100,-25 22,-6 81,-30 132,-54 356,-168 286,-453 -94,-383 -36,6 -66,17 -68,22 -1,6 -8,36 -15,66 -32,141 -96,267 -354,700 -172,288 -222,382 -261,490 -34,95 -37,160 -10,190 43,48 82,50 165,8 z" />
    </g>
    <text
       id="text19"
       y="407.41733"
       x="677.23389"
       style="font-style:normal;font-weight:normal;font-size:296.52786255px;line-height:1.25;font-family:sans-serif;letter-spacing:0px;word-spacing:0px;fill:#ffffff;fill-opacity:1;stroke:none;stroke-width:7.41319704;"
       xml:space="preserve"><tspan
         style="font-style:normal;font-variant:normal;font-weight:900;font-stretch:normal;font-family:'Source Sans Pro';-inkscape-font-specification:'Source Sans Pro Heavy';letter-spacing:-0.16772491px;fill:#ffffff;stroke-width:7.41319704;"
         y="407.41733"
         x="677.23389"
         id="tspan17"
         sodipodi:role="line">3</tspan></text>
    <text
       id="text19-6"
       y="407.41733"
       x="837.41412"
       style="font-style:normal;font-weight:normal;font-size:296.52786255px;line-height:1.25;font-family:sans-serif;letter-spacing:0px;word-spacing:0px;fill:#ffffff;fill-opacity:1;stroke:none;stroke-width:7.41319656;"
       xml:space="preserve"><tspan
         style="font-style:normal;font-variant:normal;font-weight:900;font-stretch:normal;font-family:'Source Sans Pro';-inkscape-font-specification:'Source Sans Pro Heavy';letter-spacing:-0.16772491px;fill:#ffffff;stroke-width:7.41319656;"
         y="407.41733"
         x="837.41412"
         id="tspan17-8"
         sodipodi:role="line">6</tspan></text>
    <text
       id="text19-4"
       y="407.41733"
       x="1002.9316"
       style="font-style:normal;font-weight:normal;font-size:296.52786255px;line-height:1.25;font-family:sans-serif;letter-spacing:0px;word-spacing:0px;fill:#ffffff;fill-opacity:1;stroke:none;stroke-width:7.41319656;"
       xml:space="preserve"><tspan
         style="font-style:normal;font-variant:normal;font-weight:900;font-stretch:normal;font-family:'Source Sans Pro';-inkscape-font-specification:'Source Sans Pro Heavy';letter-spacing:-0.16772491px;fill:#ffffff;stroke-width:7.41319656;"
         y="407.41733"
         x="1002.9316"
         id="tspan17-6"
         sodipodi:role="line">0</tspan></text>
  </g>
</svg>
