<?xml version="1.0" encoding="UTF-8" standalone="no"?>
<!-- Created with Inkscape (http://www.inkscape.org/) -->

<svg
   xmlns:dc="http://purl.org/dc/elements/1.1/"
   xmlns:cc="http://creativecommons.org/ns#"
   xmlns:rdf="http://www.w3.org/1999/02/22-rdf-syntax-ns#"
   xmlns:svg="http://www.w3.org/2000/svg"
   xmlns="http://www.w3.org/2000/svg"
   xmlns:sodipodi="http://sodipodi.sourceforge.net/DTD/sodipodi-0.dtd"
   xmlns:inkscape="http://www.inkscape.org/namespaces/inkscape"
   width="300"
   height="360"
   viewBox="0 0 79.374998 95.250004"
   version="1.1"
   id="svg146"
   inkscape:version="0.92.4 (5da689c313, 2019-01-14)"
   sodipodi:docname="Book360_Logo.svg">
  <defs
     id="defs140">
    <clipPath
       clipPathUnits="userSpaceOnUse"
       id="clipPath54">
      <path
         d="M 0,0 H 841.89 V 595.276 H 0 Z"
         id="path52"
         inkscape:connector-curvature="0" />
    </clipPath>
  </defs>
  <sodipodi:namedview
     id="base"
     pagecolor="#ffffff"
     bordercolor="#666666"
     borderopacity="1.0"
     inkscape:pageopacity="0.0"
     inkscape:pageshadow="2"
     inkscape:zoom="1.2802712"
     inkscape:cx="247.88908"
     inkscape:cy="157.90675"
     inkscape:document-units="px"
     inkscape:current-layer="layer1"
     showgrid="false"
     inkscape:window-width="1366"
     inkscape:window-height="705"
     inkscape:window-x="-8"
     inkscape:window-y="-8"
     inkscape:window-maximized="1"
     units="px"
     showguides="true"
     inkscape:guide-bbox="true"
     inkscape:pagecheckerboard="true"
     objecttolerance="10000"
     guidetolerance="10000">
    <sodipodi:guide
       position="7.9375,71.437503"
       orientation="1,0"
       id="guide228"
       inkscape:locked="false"
       inkscape:label=""
       inkscape:color="rgb(0,0,255)" />
    <sodipodi:guide
       position="71.4375,71.437503"
       orientation="1,0"
       id="guide230"
       inkscape:locked="false"
       inkscape:label=""
       inkscape:color="rgb(0,0,255)" />
    <sodipodi:guide
       position="71.437498,71.437505"
       orientation="0,1"
       id="guide232"
       inkscape:locked="false" />
    <sodipodi:guide
       position="71.437498,7.9375007"
       orientation="0,1"
       id="guide234"
       inkscape:locked="false" />
    <sodipodi:guide
       position="18.520833,60.854165"
       orientation="1,0"
       id="guide272"
       inkscape:locked="false"
       inkscape:label=""
       inkscape:color="rgb(0,0,255)" />
    <sodipodi:guide
       position="60.854167,60.854165"
       orientation="1,0"
       id="guide274"
       inkscape:locked="false"
       inkscape:label=""
       inkscape:color="rgb(0,0,255)" />
    <sodipodi:guide
       position="60.854165,60.854167"
       orientation="0,1"
       id="guide276"
       inkscape:locked="false"
       inkscape:label=""
       inkscape:color="rgb(0,0,255)" />
    <sodipodi:guide
       position="60.854165,18.520833"
       orientation="0,1"
       id="guide278"
       inkscape:locked="false"
       inkscape:label=""
       inkscape:color="rgb(0,0,255)" />
  </sodipodi:namedview>
  <metadata
     id="metadata143">
    <rdf:RDF>
      <cc:Work
         rdf:about="">
        <dc:format>image/svg+xml</dc:format>
        <dc:type
           rdf:resource="http://purl.org/dc/dcmitype/StillImage" />
        <dc:title />
      </cc:Work>
    </rdf:RDF>
  </metadata>
  <g
     inkscape:label="Layer 1"
     inkscape:groupmode="layer"
     id="layer1"
     transform="translate(0,-201.74998)">
    <path
       id="path35"
       d="m 39.687509,246.72917 c 11.693064,0 21.166658,9.4736 21.166658,21.16668 0,11.69303 -9.473594,21.16663 -21.166658,21.16663 -11.693081,0 -21.166675,-9.4736 -21.166675,-21.16663 0,-11.69308 9.473594,-21.16668 21.166675,-21.16668 z m 0,3.02382 c -3.07068,0 -5.976566,0.78012 -8.528663,2.12572 l 4.582583,4.58257 c 1.251863,-0.42457 2.574783,-0.66217 3.944566,-0.66217 1.393977,0 2.692703,0.236 3.944555,0.66217 l 4.582582,-4.58257 c -2.550583,-1.34709 -5.456463,-2.12572 -8.528646,-2.12572 z m -16.017126,26.67149 4.582583,-4.58257 c -0.424858,-1.25188 -0.662218,-2.5748 -0.662218,-3.94457 0,-1.39394 0.235829,-2.69269 0.662218,-3.94457 l -4.582583,-4.58258 c -1.347109,2.55058 -2.125738,5.45646 -2.125738,8.52869 0,3.07217 0.780143,5.97652 2.125738,8.52863 z m 16.017126,9.61423 c 3.070669,0 5.976555,-0.78017 8.528646,-2.12577 l -4.582583,-4.58257 c -1.251851,0.42514 -2.550577,0.66223 -3.944554,0.66223 -1.369783,0 -2.692703,-0.23601 -3.944566,-0.66223 l -4.582583,4.58257 c 2.550583,1.34714 5.456474,2.12577 8.528663,2.12577 z m 0,-9.07143 c 5.008932,0 9.071424,-4.064 9.071424,-9.07143 0,-5.00743 -4.064001,-9.07143 -9.071424,-9.07143 -5.007434,0 -9.071434,4.064 -9.071434,9.07143 0,5.00743 4.064,9.07143 9.071434,9.07143 z m 11.433018,-5.12692 4.582583,4.58263 c 1.347109,-2.55063 2.125737,-5.45645 2.125737,-8.52868 0,-3.07217 -0.780142,-5.97657 -2.125737,-8.52863 l -4.582583,4.58257 c 0.424857,1.25183 0.662211,2.5748 0.662211,3.94457 0,1.36978 -0.235828,2.69269 -0.662211,3.94458 z"
       inkscape:connector-curvature="0"
       style="fill:#ffffff;stroke-width:1.51190495" />
    <path
       style="fill:#000000;stroke-width:0.26458332"
       d=""
       id="path3768"
       inkscape:connector-curvature="0" />
    <path
       style="fill:#000000;stroke-width:0.26458332"
       d=""
       id="path3766"
       inkscape:connector-curvature="0" />
    <path
       style="fill:#000000;stroke-width:0.26458332"
       d=""
       id="path3764"
       inkscape:connector-curvature="0" />
    <path
       style="fill:#000000;stroke-width:0.26458332"
       d=""
       id="path3762"
       inkscape:connector-curvature="0" />
    <path
       style="fill:#000000;stroke-width:0.26458332"
       d=""
       id="path3760"
       inkscape:connector-curvature="0" />
    <g
       transform="translate(18.125143,-58.916053)"
       id="layer1-5"
       inkscape:label="Layer 1">
      <g
         transform="translate(0,-3.3358401)"
         id="text12"
         style="font-style:normal;font-weight:normal;font-size:9.4101305px;line-height:1.25;font-family:sans-serif;letter-spacing:0px;word-spacing:0px;fill:#ffffff;fill-opacity:1;stroke:none;stroke-width:0.23525323"
         aria-label="Book360">
        <path
           inkscape:connector-curvature="0"
           id="path14"
           style="font-style:normal;font-variant:normal;font-weight:normal;font-stretch:normal;font-family:Pacifico;-inkscape-font-specification:Pacifico;fill:#ffffff;stroke-width:0.23525323"
           d="m 6.3505567,276.32283 q -0.2986614,0.54218 -0.5329957,0.81328 -0.2343343,0.27109 -0.3813676,0.27109 -0.2021708,0 -0.2021708,-0.46408 0,-0.45028 0.1286542,-0.80868 0.1286541,-0.35839 0.3629884,-0.63408 0.2297395,-0.28028 0.54678,-0.47326 0.3216354,-0.19758 0.6984082,-0.32164 0.3813676,-0.12865 0.8040883,-0.18838 0.4227207,-0.0597 0.8684153,-0.0597 0.5192113,0 1.0430174,0.0781 0.5238066,0.0735 1.0062586,0.21136 0.482453,0.13785 0.900579,0.33542 0.418126,0.19299 0.725977,0.43191 0.312446,0.23434 0.487048,0.51003 0.179197,0.27568 0.179197,0.57435 0,0.35379 -0.156223,0.6984 -0.151628,0.34461 -0.482453,0.62489 -0.32623,0.27569 -0.840847,0.45489 -0.510021,0.1792 -1.226809,0.19298 0.454885,0 0.794899,0.14703 0.340015,0.14244 0.569754,0.39056 0.22974,0.24352 0.344609,0.58813 0.11487,0.34002 0.11487,0.69382 0,0.28947 -0.07811,0.58813 -0.07811,0.29866 -0.234335,0.57435 -0.156223,0.27569 -0.390557,0.51921 -0.234334,0.23893 -0.551375,0.41813 -0.312445,0.17919 -0.707597,0.28028 -0.3951523,0.10568 -0.8684157,0.10568 -0.2986614,0 -0.6294863,-0.0414 -0.3308249,-0.0368 -0.6708394,-0.10568 -0.3354196,-0.0643 -0.6616498,-0.15623 -0.3262301,-0.0919 -0.6157019,-0.19757 -0.1286541,-0.0322 -0.2297395,-0.0965 -0.096491,-0.0643 -0.096491,-0.22974 0,-0.76274 0.036758,-1.56223 0.041353,-0.7995 0.1608176,-1.58061 0.1194646,-0.78571 0.3216353,-1.36465 0.2021708,-0.57895 0.5743488,-1.12573 0.3262301,-0.22514 0.592728,-0.22514 0.3354197,0 0.5605644,0.37677 -0.2113604,0.28488 -0.3629885,0.63408 -0.1470332,0.34921 -0.2251447,0.6203 -0.078111,0.27109 -0.1424385,0.67084 -0.059732,0.39975 -0.096491,0.78111 -0.022974,0.21596 -0.041353,0.48246 -0.013784,0.2619 -0.027569,0.51461 -0.013784,0.25272 -0.022974,0.50543 -0.00459,0.24812 -0.00459,0.47786 0,0.0368 0,0.10108 0,0.0643 0.00919,0.13325 0.013784,0.0689 0.032163,0.12866 0.018379,0.0551 0.055137,0.0827 0.2802822,0.0919 0.6019176,0.15623 0.3216353,0.0643 0.6432706,0.0643 0.3905572,0 0.7581404,-0.0919 0.3675836,-0.0965 0.6524606,-0.29866 0.284877,-0.20677 0.454884,-0.52381 0.174602,-0.32164 0.174602,-0.81787 0,-0.2665 -0.101085,-0.4411 -0.101086,-0.1792 -0.266498,-0.29866 -0.160818,-0.11947 -0.372178,-0.18839 -0.206766,-0.0735 -0.4273158,-0.12866 -0.2159552,-0.0597 -0.4273155,-0.11487 -0.2067656,-0.0551 -0.3721781,-0.13784 -0.1608176,-0.0873 -0.261903,-0.21136 -0.1010854,-0.12865 -0.1010854,-0.33082 0,-0.0965 0.00919,-0.16542 0.013784,-0.0735 0.055138,-0.11946 0.045948,-0.046 0.1286541,-0.0689 0.087301,-0.023 0.2343343,-0.023 0.197576,0 0.3583936,0.0184 0.1654125,0.0138 0.3537989,0.0138 0.4410999,0 0.7948989,-0.10568 0.358394,-0.11028 0.606512,-0.29407 0.252714,-0.18379 0.385963,-0.42732 0.137844,-0.24811 0.137844,-0.5284 0,-0.18379 -0.105681,-0.33542 -0.10568,-0.15622 -0.298661,-0.27568 -0.188386,-0.12406 -0.445695,-0.21596 -0.257308,-0.0919 -0.560564,-0.15163 -0.303256,-0.0643 -0.6386762,-0.0919 -0.3354197,-0.0322 -0.680029,-0.0322 -0.5559696,0 -0.8638206,0.0368 -0.4227207,0.046 -0.7903039,0.14704 -0.3629884,0.0965 -0.6478654,0.25271 -0.2802822,0.15622 -0.4273155,0.3538 z" />
        <path
           inkscape:connector-curvature="0"
           id="path16"
           style="font-style:normal;font-variant:normal;font-weight:normal;font-stretch:normal;font-family:Pacifico;-inkscape-font-specification:Pacifico;fill:#ffffff;stroke-width:0.23525323"
           d="m 15.779066,278.89132 q 0.133249,0.26649 0.197576,0.56515 0.06892,0.29407 0.06892,0.66625 0,0.27109 -0.05973,0.54678 -0.05973,0.27569 -0.174602,0.533 -0.110275,0.2573 -0.275688,0.48245 -0.160817,0.22514 -0.372178,0.39056 -0.206765,0.16541 -0.454884,0.2619 -0.248119,0.0965 -0.528401,0.0965 -0.404341,0 -0.693813,-0.1746 -0.284877,-0.1792 -0.468669,-0.46408 -0.183791,-0.28487 -0.271092,-0.64327 -0.08271,-0.35839 -0.08271,-0.72597 0,-0.60652 0.151629,-1.04302 0.151628,-0.4411 0.43191,-0.76274 0.284877,-0.32623 0.693813,-0.51002 0.408937,-0.18839 0.918958,-0.18839 0.436505,0 0.817873,0.13785 0.381368,0.13325 0.712192,0.36299 0.33542,0.22514 0.620297,0.56975 0.289472,0.34461 0.537591,0.65706 l -0.0873,0.64786 q -0.12406,-0.16541 -0.33542,-0.35839 -0.211361,-0.19298 -0.45029,-0.42732 -0.234334,-0.23433 -0.464073,-0.39515 -0.22974,-0.16541 -0.395152,-0.27569 z m -1.41979,2.66038 q 0.156223,0 0.303256,-0.15622 0.147034,-0.16082 0.257309,-0.39975 0.110274,-0.24352 0.174602,-0.58354 0.06892,-0.34461 0.06892,-0.61111 0,-0.21136 -0.03216,-0.39055 -0.03216,-0.18379 -0.09649,-0.31704 -0.06433,-0.13325 -0.165412,-0.21136 -0.101086,-0.0781 -0.243524,-0.0781 -0.188386,0 -0.358394,0.16082 -0.170007,0.16082 -0.298661,0.41353 -0.128654,0.24812 -0.202171,0.55138 -0.07352,0.30325 -0.07352,0.68462 0,0.19298 0.03676,0.36299 0.03676,0.17001 0.11487,0.29866 0.07811,0.12406 0.206765,0.20217 0.128654,0.0735 0.30785,0.0735 z" />
        <path
           inkscape:connector-curvature="0"
           id="path18"
           style="font-style:normal;font-variant:normal;font-weight:normal;font-stretch:normal;font-family:Pacifico;-inkscape-font-specification:Pacifico;fill:#ffffff;stroke-width:0.23525323"
           d="m 19.748965,278.89132 q 0.133249,0.26649 0.197576,0.56515 0.06892,0.29407 0.06892,0.66625 0,0.27109 -0.05973,0.54678 -0.05973,0.27569 -0.174602,0.533 -0.110275,0.2573 -0.275688,0.48245 -0.160818,0.22514 -0.372178,0.39056 -0.206765,0.16541 -0.454884,0.2619 -0.248119,0.0965 -0.528401,0.0965 -0.404342,0 -0.693813,-0.1746 -0.284877,-0.1792 -0.468669,-0.46408 -0.183792,-0.28487 -0.271093,-0.64327 -0.08271,-0.35839 -0.08271,-0.72597 0,-0.60652 0.151628,-1.04302 0.151628,-0.4411 0.431911,-0.76274 0.284877,-0.32623 0.693813,-0.51002 0.408936,-0.18839 0.918958,-0.18839 0.436505,0 0.817873,0.13785 0.381367,0.13325 0.712192,0.36299 0.33542,0.22514 0.620297,0.56975 0.289472,0.34461 0.53759,0.65706 l -0.0873,0.64786 q -0.124059,-0.16541 -0.335419,-0.35839 -0.211361,-0.19298 -0.45029,-0.42732 -0.234334,-0.23433 -0.464074,-0.39515 -0.229739,-0.16541 -0.395152,-0.27569 z m -1.41979,2.66038 q 0.156223,0 0.303256,-0.15622 0.147033,-0.16082 0.257308,-0.39975 0.110275,-0.24352 0.174602,-0.58354 0.06892,-0.34461 0.06892,-0.61111 0,-0.21136 -0.03216,-0.39055 -0.03216,-0.18379 -0.09649,-0.31704 -0.06433,-0.13325 -0.165412,-0.21136 -0.101086,-0.0781 -0.243524,-0.0781 -0.188387,0 -0.358394,0.16082 -0.170007,0.16082 -0.298661,0.41353 -0.128655,0.24812 -0.202171,0.55138 -0.07352,0.30325 -0.07352,0.68462 0,0.19298 0.03676,0.36299 0.03676,0.17001 0.114869,0.29866 0.07811,0.12406 0.206766,0.20217 0.128654,0.0735 0.307851,0.0735 z" />
        <path
           inkscape:connector-curvature="0"
           id="path20"
           style="font-style:normal;font-variant:normal;font-weight:normal;font-stretch:normal;font-family:Pacifico;-inkscape-font-specification:Pacifico;fill:#ffffff;stroke-width:0.23525323"
           d="m 22.37259,279.86541 q 0.165412,-0.21136 0.362988,-0.46407 0.197576,-0.25272 0.385962,-0.48246 0.192982,-0.22974 0.385963,-0.47785 0.192981,-0.24812 0.284877,-0.31245 0.142438,-0.10108 0.349204,-0.17001 0.206765,-0.0735 0.459479,-0.0735 0.128654,0 0.243524,0.0597 0.119464,0.0597 0.206765,0.17001 0.0873,0.11027 0.137844,0.26649 0.05054,0.15623 0.05054,0.34921 0,0.18838 -0.128654,0.45029 -0.12406,0.25731 -0.261903,0.45029 -0.137844,0.19298 -0.298662,0.38596 -0.160817,0.19298 -0.298661,0.39056 -0.137844,0.19298 -0.22974,0.38596 -0.0919,0.19298 -0.0919,0.38596 0,0.16541 0.07811,0.23893 0.08271,0.0689 0.252713,0.0689 0.0919,0 0.197576,-0.0597 0.110275,-0.0643 0.225145,-0.16541 0.11487,-0.10109 0.22974,-0.22515 0.119464,-0.12406 0.225144,-0.25271 0.110275,-0.12865 0.206766,-0.24352 0.09649,-0.11947 0.174602,-0.20218 l 0.275687,1.12573 q -0.142438,0.20676 -0.362988,0.38596 -0.215955,0.1746 -0.473263,0.30785 -0.252714,0.12866 -0.528401,0.20217 -0.271093,0.0735 -0.523806,0.0735 -0.330825,0 -0.542186,-0.0781 -0.206765,-0.0827 -0.32623,-0.21596 -0.119464,-0.13325 -0.165412,-0.29866 -0.04135,-0.17001 -0.04135,-0.3492 0,-0.10568 0.02297,-0.25731 0.02757,-0.15622 0.09649,-0.34921 0.07352,-0.19298 0.202171,-0.42272 0.128654,-0.23433 0.33542,-0.50083 0.08271,-0.0827 0.151628,-0.14703 0.06892,-0.0689 0.119464,-0.11947 0.05054,-0.0551 0.07811,-0.10108 0.02757,-0.046 0.02757,-0.0965 0,-0.0965 -0.03676,-0.15622 -0.03216,-0.0597 -0.09649,-0.0597 -0.07811,0 -0.202171,0.10109 -0.128654,0.10568 -0.271093,0.3538 l -1.350868,2.37091 q -0.110275,0.1792 -0.22055,0.25271 -0.110275,0.0735 -0.257308,0.0735 -0.197576,0 -0.312446,-0.0827 -0.11487,-0.0873 -0.174602,-0.22974 -0.05973,-0.14703 -0.07811,-0.33542 -0.01378,-0.19298 -0.01378,-0.40893 0,-0.26191 0.01838,-0.69382 0.01838,-0.43191 0.05514,-0.94652 0.03676,-0.51921 0.09649,-1.08437 0.06433,-0.56516 0.151628,-1.09816 0.03216,-0.18838 0.08271,-0.45488 0.05054,-0.2711 0.124059,-0.57895 0.07811,-0.30785 0.179197,-0.63867 0.10568,-0.33542 0.238929,-0.64787 0.137844,-0.31704 0.307851,-0.60191 0.170007,-0.28488 0.381367,-0.49624 0.211361,-0.21596 0.464074,-0.34002 0.252714,-0.12406 0.551375,-0.12406 0.234334,0 0.385962,0.0781 0.151629,0.0735 0.23893,0.21136 0.0919,0.13324 0.128654,0.32163 0.03676,0.18839 0.03676,0.40894 0,0.39055 -0.101085,0.84084 -0.09649,0.45029 -0.248119,0.90518 -0.151628,0.45029 -0.330825,0.8776 -0.179197,0.42732 -0.344609,0.77193 -0.165413,0.34461 -0.294067,0.58354 -0.124059,0.23433 -0.165412,0.30785 l -0.54678,0.81787 z m 0.900579,-5.15995 q -0.147034,0 -0.252714,0.0919 -0.10568,0.0919 -0.202171,0.2619 -0.09189,0.17001 -0.188386,0.41353 -0.0919,0.24353 -0.21136,0.54219 -0.07352,0.2619 -0.137844,0.54218 -0.05973,0.28028 -0.110275,0.56057 -0.05054,0.27568 -0.0919,0.54678 -0.03676,0.27109 -0.06433,0.51002 -0.06892,0.56516 -0.110275,1.11194 0.101085,-0.30326 0.22055,-0.65706 0.119465,-0.35839 0.234334,-0.703 0.119465,-0.3492 0.22055,-0.65706 0.10568,-0.31244 0.174602,-0.5284 0.03216,-0.10108 0.0919,-0.25271 0.05973,-0.15163 0.128654,-0.32623 0.06892,-0.1746 0.137844,-0.36299 0.06892,-0.18838 0.124059,-0.36299 0.05973,-0.1746 0.09649,-0.32623 0.03676,-0.15162 0.03676,-0.25731 0,-0.14703 -0.09649,-0.14703 z" />
        <path
           inkscape:connector-curvature="0"
           id="path22"
           style="font-style:normal;font-variant:normal;font-weight:normal;font-stretch:normal;font-family:Pacifico;-inkscape-font-specification:Pacifico;fill:#ffffff;stroke-width:0.23525323"
           d="m 25.901389,281.2898 q -0.01838,0.15622 0.0046,0.26649 0.02297,0.11028 0.07352,0.1792 0.05054,0.0689 0.119464,0.10109 0.07352,0.0322 0.156223,0.0322 0.119465,0 0.294067,-0.0551 0.179197,-0.0597 0.284877,-0.16082 0.110275,-0.10108 0.188386,-0.23892 0.07811,-0.14244 0.0919,-0.30326 0.02757,-0.2619 -0.01838,-0.54678 -0.04595,-0.28947 -0.165413,-0.39975 -0.119464,-0.11487 -0.31704,-0.1746 -0.192981,-0.0597 -0.454884,-0.0873 -0.147034,-0.009 -0.206766,-0.0597 -0.05973,-0.0551 -0.05054,-0.13325 0.0046,-0.0643 0.02757,-0.13785 0.02297,-0.0781 0.06433,-0.14243 0.04135,-0.0689 0.10568,-0.11028 0.06433,-0.046 0.147034,-0.046 0.183791,0 0.335419,-0.0689 0.156223,-0.0689 0.275688,-0.30785 0.119464,-0.24352 0.183791,-0.36758 0.06433,-0.12866 0.07811,-0.24812 0.01378,-0.15622 -0.07352,-0.2665 -0.0873,-0.11027 -0.298661,-0.11027 -0.165413,0 -0.289472,0.0781 -0.119465,0.0781 -0.128654,0.18379 -0.0046,0.0551 0.02757,0.11487 0.03676,0.0597 0.124059,0.11027 0.04595,0.0276 0.04135,0.0597 0,0.0367 -0.07352,0.0735 -0.06892,0.0322 -0.160817,0.0597 -0.0873,0.023 -0.170007,0.0414 -0.07811,0.0138 -0.105681,0.0138 -0.05514,0 -0.10568,-0.023 -0.05054,-0.0276 -0.0919,-0.0873 -0.03676,-0.0597 -0.05514,-0.16082 -0.01838,-0.10109 -0.0046,-0.25271 0.02757,-0.28948 0.151628,-0.48705 0.128654,-0.19758 0.317041,-0.31245 0.188386,-0.11487 0.418126,-0.17 0.229739,-0.0551 0.468668,-0.0551 0.257308,0 0.500832,0.0643 0.243524,0.0597 0.427316,0.1792 0.183791,0.11487 0.289472,0.28947 0.10568,0.17001 0.07811,0.4457 -0.0092,0.12865 -0.05514,0.28488 -0.04595,0.15162 -0.147034,0.30325 -0.09649,0.15163 -0.280282,0.45029 -0.179197,0.29407 -0.4411,0.38596 0.275688,0.0735 0.459479,0.22055 0.188387,0.14244 0.294067,0.34002 0.110275,0.19298 0.142438,0.53299 0.03676,0.33542 0.01379,0.57435 -0.02297,0.24353 -0.170008,0.48705 -0.147033,0.23893 -0.390557,0.43191 -0.238929,0.18839 -0.555969,0.30785 -0.317041,0.11947 -0.680029,0.11947 -0.519212,0 -0.817873,-0.0919 -0.294067,-0.0919 -0.473263,-0.2619 -0.179197,-0.17001 -0.248119,-0.40434 -0.06433,-0.23893 -0.03676,-0.52381 0.01838,-0.1746 0.07811,-0.28947 0.06433,-0.11947 0.156223,-0.18839 0.09649,-0.0735 0.215955,-0.10108 0.119465,-0.0322 0.243524,-0.0322 0.10568,0 0.234334,0.0276 0.133249,0.023 0.243524,0.0643 0.110275,0.0414 0.183792,0.0919 0.07352,0.0505 0.06892,0.0965 -0.0046,0.0368 -0.0873,0.0597 -0.07811,0.023 -0.179197,0.0643 -0.101086,0.0368 -0.183792,0.10109 -0.08271,0.0597 -0.0919,0.17001 z" />
        <path
           inkscape:connector-curvature="0"
           id="path24"
           style="font-style:normal;font-variant:normal;font-weight:normal;font-stretch:normal;font-family:Pacifico;-inkscape-font-specification:Pacifico;fill:#ffffff;stroke-width:0.23525323"
           d="m 31.617308,280.44895 q 0,-0.29866 -0.101085,-0.45488 -0.101086,-0.16082 -0.257309,-0.16082 -0.114869,0 -0.192981,0.0597 -0.07811,0.0551 -0.133249,0.14244 -0.05514,0.0827 -0.09649,0.18379 -0.04135,0.10109 -0.08271,0.18839 -0.04135,0.0827 -0.0873,0.14243 -0.04595,0.0551 -0.110275,0.0551 -0.02297,0 -0.05514,-0.10568 -0.02757,-0.11027 -0.02757,-0.27109 0,-0.25271 0.101086,-0.45488 0.10568,-0.20218 0.271092,-0.34002 0.165413,-0.14244 0.376773,-0.21595 0.21136,-0.0781 0.43191,-0.0781 0.211361,0 0.408937,0.0735 0.197576,0.0735 0.353798,0.22974 0.156223,0.15163 0.248119,0.39056 0.09649,0.23893 0.09649,0.56975 0,0.36758 -0.142439,0.73057 -0.142438,0.36299 -0.408936,0.65246 -0.266498,0.28948 -0.647866,0.46867 -0.381367,0.1792 -0.86382,0.1792 -0.33542,0 -0.657055,-0.0965 -0.321635,-0.10109 -0.574349,-0.32164 -0.252713,-0.22055 -0.408936,-0.56975 -0.151628,-0.34921 -0.151628,-0.85004 0,-0.56975 0.215955,-1.11194 0.22055,-0.54218 0.597323,-1.01545 0.376772,-0.47785 0.886794,-0.86841 0.510022,-0.39515 1.088965,-0.66625 0.0919,-0.0413 0.170008,-0.0643 0.08271,-0.0276 0.165412,-0.0276 0.202171,0 0.317041,0.10568 0.114869,0.10108 0.114869,0.24812 0,0.10568 -0.06433,0.21595 -0.05973,0.11028 -0.206765,0.21136 -0.408937,0.24353 -0.799494,0.59273 -0.385962,0.34461 -0.689218,0.75814 -0.298662,0.41353 -0.482453,0.87761 -0.183792,0.45948 -0.183792,0.92355 0,0.1792 0.03216,0.34001 0.03676,0.16082 0.114869,0.28488 0.08271,0.12406 0.211361,0.19758 0.128654,0.0689 0.321635,0.0689 0.197576,0 0.362988,-0.11028 0.170008,-0.11487 0.284877,-0.28947 0.119465,-0.17919 0.183792,-0.39515 0.06892,-0.21595 0.06892,-0.42272 z" />
        <path
           inkscape:connector-curvature="0"
           id="path26"
           style="font-style:normal;font-variant:normal;font-weight:normal;font-stretch:normal;font-family:Pacifico;-inkscape-font-specification:Pacifico;fill:#ffffff;stroke-width:0.23525323"
           d="m 34.911773,282.4339 q -0.353799,0 -0.620297,-0.15163 -0.261903,-0.15622 -0.436505,-0.41353 -0.174602,-0.2619 -0.261903,-0.60192 -0.0873,-0.34461 -0.0873,-0.72597 0,-0.33542 0.05973,-0.68463 0.06433,-0.3538 0.183792,-0.68003 0.119464,-0.33082 0.294066,-0.62029 0.179197,-0.29407 0.408937,-0.51003 0.229739,-0.22055 0.510021,-0.34461 0.284877,-0.12865 0.615702,-0.12865 0.381368,0 0.657055,0.14703 0.280283,0.14244 0.427316,0.39056 0.151628,0.24812 0.234334,0.57894 0.0873,0.32623 0.0873,0.69382 0,0.34001 -0.06892,0.69841 -0.06433,0.35839 -0.165412,0.6984 -0.09649,0.34002 -0.284877,0.64328 -0.183792,0.29866 -0.422721,0.5238 -0.234334,0.22515 -0.519211,0.35839 -0.284877,0.12866 -0.611107,0.12866 z m 0.07352,-0.83625 q 0.12406,0 0.243524,-0.11028 0.119465,-0.11487 0.225145,-0.30325 0.10568,-0.18839 0.192981,-0.43191 0.0919,-0.24353 0.156223,-0.50084 0.06433,-0.2619 0.101085,-0.51921 0.03676,-0.25731 0.03676,-0.47326 0,-0.1792 -0.02297,-0.33542 -0.02297,-0.15622 -0.06892,-0.27109 -0.04595,-0.11487 -0.119465,-0.1792 -0.06892,-0.0689 -0.170007,-0.0689 -0.137844,0 -0.261903,0.11487 -0.119464,0.11027 -0.225145,0.29406 -0.101085,0.1838 -0.183791,0.42272 -0.07811,0.23893 -0.137844,0.49624 -0.05514,0.25272 -0.0873,0.50543 -0.02757,0.24812 -0.02757,0.45948 0,0.19298 0.01838,0.35839 0.02297,0.16082 0.06433,0.28488 0.04595,0.11946 0.110275,0.18839 0.06892,0.0689 0.156222,0.0689 z" />
      </g>
    </g>
    <g
       aria-label="Bits are flowing..."
       style="font-style:normal;font-weight:normal;font-size:10.58333397px;line-height:1.25;font-family:sans-serif;letter-spacing:0px;word-spacing:0px;fill:#ffffff;fill-opacity:1;stroke:none;stroke-width:0.26458335"
       id="text69">
      <path
         d="m 10.478434,234.30355 v 1.41335 h 0.617533 q 0.454753,0 0.648539,-0.15761 0.193787,-0.1602 0.193787,-0.52452 0,-0.37724 -0.204122,-0.55294 -0.204122,-0.17828 -0.638204,-0.17828 z m 0,-1.58647 v 1.16272 h 0.607198 q 0.377238,0 0.545186,-0.14469 0.170532,-0.1447 0.170532,-0.46767 0,-0.29198 -0.167948,-0.42117 -0.165365,-0.12919 -0.54777,-0.12919 z m -0.5245162,-0.42891 h 1.1420492 q 0.591695,0 0.912089,0.2558 0.320394,0.25579 0.320394,0.72347 0,0.35398 -0.170532,0.5581 -0.167949,0.20412 -0.506429,0.2558 0.379821,0.0568 0.594279,0.32556 0.217041,0.26613 0.217041,0.67955 0,0.52451 -0.343649,0.79323 -0.343648,0.26613 -1.023193,0.26613 H 9.9539178 Z"
         style="font-style:normal;font-variant:normal;font-weight:normal;font-stretch:normal;font-size:5.29166651px;font-family:'DejaVu Sans Mono';-inkscape-font-specification:'DejaVu Sans Mono';fill:#ffffff;stroke-width:0.26458335"
         id="path71" />
      <path
         d="m 13.36973,233.25193 h 1.21698 v 2.5244 h 0.943095 v 0.36948 h -2.361613 v -0.36948 h 0.943095 v -2.15491 H 13.36973 Z m 0.741557,-1.12654 h 0.475423 v 0.60203 h -0.475423 z"
         style="font-style:normal;font-variant:normal;font-weight:normal;font-stretch:normal;font-size:5.29166651px;font-family:'DejaVu Sans Mono';-inkscape-font-specification:'DejaVu Sans Mono';fill:#ffffff;stroke-width:0.26458335"
         id="path73" />
      <path
         d="m 17.478006,232.43028 v 0.82165 h 1.080037 v 0.36949 h -1.080037 v 1.57096 q 0,0.3204 0.12144,0.447 0.121439,0.12661 0.423746,0.12661 h 0.534851 v 0.37982 h -0.581359 q -0.534852,0 -0.754476,-0.21445 -0.219625,-0.21446 -0.219625,-0.73898 v -1.57096 H 16.23002 v -0.36949 h 0.772563 v -0.82165 z"
         style="font-style:normal;font-variant:normal;font-weight:normal;font-stretch:normal;font-size:5.29166651px;font-family:'DejaVu Sans Mono';-inkscape-font-specification:'DejaVu Sans Mono';fill:#ffffff;stroke-width:0.26458335"
         id="path75" />
      <path
         d="m 21.588866,233.3527 v 0.46509 q -0.204121,-0.11886 -0.410827,-0.17828 -0.206706,-0.0594 -0.421163,-0.0594 -0.322978,0 -0.483175,0.10593 -0.157613,0.10336 -0.157613,0.31781 0,0.19379 0.118856,0.28939 0.118856,0.0956 0.591695,0.18604 l 0.191203,0.0362 q 0.353983,0.0672 0.534851,0.26872 0.183451,0.20154 0.183451,0.52451 0,0.42892 -0.304891,0.6718 -0.304891,0.24029 -0.847493,0.24029 -0.214457,0 -0.449585,-0.0465 -0.235128,-0.0439 -0.509013,-0.13436 v -0.49093 q 0.266134,0.13694 0.509013,0.20671 0.242879,0.0672 0.45992,0.0672 0.315226,0 0.488342,-0.12661 0.173116,-0.12919 0.173116,-0.35915 0,-0.33073 -0.633036,-0.45734 l -0.02067,-0.005 -0.178284,-0.0362 q -0.410828,-0.0801 -0.599447,-0.26872 -0.188619,-0.1912 -0.188619,-0.51935 0,-0.41599 0.281637,-0.64078 0.281636,-0.22738 0.803568,-0.22738 0.232544,0 0.447002,0.0439 0.214457,0.0413 0.421162,0.12661 z"
         style="font-style:normal;font-variant:normal;font-weight:normal;font-stretch:normal;font-size:5.29166651px;font-family:'DejaVu Sans Mono';-inkscape-font-specification:'DejaVu Sans Mono';fill:#ffffff;stroke-width:0.26458335"
         id="path77" />
      <path
         d="m 27.255186,234.69112 h -0.157613 q -0.415995,0 -0.627869,0.14728 -0.209289,0.14469 -0.209289,0.43408 0,0.26097 0.157613,0.40566 0.157613,0.1447 0.436666,0.1447 0.392741,0 0.617533,-0.27131 0.224793,-0.27388 0.227376,-0.75447 v -0.10594 z m 0.922424,-0.19637 v 1.65106 h -0.478007 v -0.42891 q -0.152445,0.25838 -0.384989,0.3824 -0.22996,0.12144 -0.560689,0.12144 -0.441834,0 -0.705384,-0.24804 -0.263549,-0.25063 -0.263549,-0.66921 0,-0.48318 0.322977,-0.73381 0.325562,-0.25063 0.95343,-0.25063 h 0.638204 v -0.0749 q -0.0026,-0.34623 -0.1757,-0.50126 -0.173116,-0.15761 -0.552937,-0.15761 -0.24288,0 -0.490926,0.0698 -0.248047,0.0698 -0.483175,0.20412 v -0.47542 q 0.26355,-0.10077 0.503845,-0.14986 0.242879,-0.0517 0.470256,-0.0517 0.359151,0 0.612365,0.10594 0.255799,0.10593 0.413412,0.31781 0.09819,0.12919 0.139526,0.32039 0.04134,0.18862 0.04134,0.56844 z"
         style="font-style:normal;font-variant:normal;font-weight:normal;font-stretch:normal;font-size:5.29166651px;font-family:'DejaVu Sans Mono';-inkscape-font-specification:'DejaVu Sans Mono';fill:#ffffff;stroke-width:0.26458335"
         id="path79" />
      <path
         d="m 31.608927,233.8488 q -0.152446,-0.11886 -0.310059,-0.17312 -0.157613,-0.0543 -0.346232,-0.0543 -0.444417,0 -0.679545,0.27905 -0.235128,0.27905 -0.235128,0.80615 v 1.43919 h -0.478007 v -2.89388 h 0.478007 v 0.56586 q 0.118856,-0.30747 0.364319,-0.47026 0.248047,-0.16536 0.586528,-0.16536 0.175699,0 0.328145,0.0439 0.152445,0.0439 0.291972,0.13695 z"
         style="font-style:normal;font-variant:normal;font-weight:normal;font-stretch:normal;font-size:5.29166651px;font-family:'DejaVu Sans Mono';-inkscape-font-specification:'DejaVu Sans Mono';fill:#ffffff;stroke-width:0.26458335"
         id="path81" />
      <path
         d="m 34.68109,234.58002 v 0.23254 h -2.059306 v 0.0155 q 0,0.47284 0.245463,0.73123 0.248047,0.25838 0.697632,0.25838 0.227376,0 0.475423,-0.0724 0.248047,-0.0724 0.529684,-0.21962 v 0.47284 q -0.271302,0.1111 -0.524516,0.16536 -0.250631,0.0568 -0.485759,0.0568 -0.674377,0 -1.054199,-0.40307 -0.379822,-0.40566 -0.379822,-1.11621 0,-0.69247 0.372071,-1.10588 0.37207,-0.41341 0.992187,-0.41341 0.552938,0 0.870748,0.37465 0.320394,0.37466 0.320394,1.0232 z m -0.475423,-0.13953 q -0.01033,-0.41858 -0.198954,-0.63562 -0.186036,-0.21962 -0.537435,-0.21962 -0.343649,0 -0.565857,0.22737 -0.222209,0.22738 -0.26355,0.63045 z"
         style="font-style:normal;font-variant:normal;font-weight:normal;font-stretch:normal;font-size:5.29166651px;font-family:'DejaVu Sans Mono';-inkscape-font-specification:'DejaVu Sans Mono';fill:#ffffff;stroke-width:0.26458335"
         id="path83" />
      <path
         d="m 40.921018,232.12539 v 0.39532 h -0.540019 q -0.255798,0 -0.356567,0.10594 -0.09819,0.10335 -0.09819,0.36948 v 0.2558 h 0.994771 v 0.36949 h -0.994771 v 2.52439 h -0.475424 v -2.52439 h -0.772562 v -0.36949 h 0.772562 v -0.20154 q 0,-0.47542 0.217041,-0.70021 0.219625,-0.22479 0.682129,-0.22479 z"
         style="font-style:normal;font-variant:normal;font-weight:normal;font-stretch:normal;font-size:5.29166651px;font-family:'DejaVu Sans Mono';-inkscape-font-specification:'DejaVu Sans Mono';fill:#ffffff;stroke-width:0.26458335"
         id="path85" />
      <path
         d="m 43.008745,235.09678 q 0,0.3204 0.116272,0.48318 0.118856,0.16278 0.348816,0.16278 h 0.555522 v 0.40307 h -0.602031 q -0.42633,0 -0.661458,-0.27388 -0.232544,-0.27389 -0.232544,-0.77515 v -2.62775 h -0.762227 v -0.37207 h 1.23765 z"
         style="font-style:normal;font-variant:normal;font-weight:normal;font-stretch:normal;font-size:5.29166651px;font-family:'DejaVu Sans Mono';-inkscape-font-specification:'DejaVu Sans Mono';fill:#ffffff;stroke-width:0.26458335"
         id="path87" />
      <path
         d="m 46.132587,233.58525 q -0.361735,0 -0.54777,0.28163 -0.186036,0.28164 -0.186036,0.83458 0,0.55035 0.186036,0.83457 0.186035,0.28164 0.54777,0.28164 0.364319,0 0.550354,-0.28164 0.186035,-0.28422 0.186035,-0.83457 0,-0.55294 -0.186035,-0.83458 -0.186035,-0.28163 -0.550354,-0.28163 z m 0,-0.40308 q 0.60203,0 0.91984,0.39016 0.320394,0.39015 0.320394,1.12913 0,0.74155 -0.31781,1.13171 -0.31781,0.38757 -0.922424,0.38757 -0.602031,0 -0.919841,-0.38757 -0.31781,-0.39016 -0.31781,-1.13171 0,-0.73898 0.31781,-1.12913 0.31781,-0.39016 0.919841,-0.39016 z"
         style="font-style:normal;font-variant:normal;font-weight:normal;font-stretch:normal;font-size:5.29166651px;font-family:'DejaVu Sans Mono';-inkscape-font-specification:'DejaVu Sans Mono';fill:#ffffff;stroke-width:0.26458335"
         id="path89" />
      <path
         d="m 47.724222,233.25193 h 0.470256 l 0.503845,2.33836 0.413411,-1.49345 h 0.40566 l 0.418579,1.49345 0.503846,-2.33836 h 0.470255 l -0.676961,2.89388 H 49.77836 l -0.462504,-1.58646 -0.45992,1.58646 h -0.454753 z"
         style="font-style:normal;font-variant:normal;font-weight:normal;font-stretch:normal;font-size:5.29166651px;font-family:'DejaVu Sans Mono';-inkscape-font-specification:'DejaVu Sans Mono';fill:#ffffff;stroke-width:0.26458335"
         id="path91" />
      <path
         d="m 51.568946,233.25193 h 1.21698 v 2.5244 h 0.943095 v 0.36948 h -2.361613 v -0.36948 h 0.943095 v -2.15491 h -0.741557 z m 0.741557,-1.12654 h 0.475423 v 0.60203 h -0.475423 z"
         style="font-style:normal;font-variant:normal;font-weight:normal;font-stretch:normal;font-size:5.29166651px;font-family:'DejaVu Sans Mono';-inkscape-font-specification:'DejaVu Sans Mono';fill:#ffffff;stroke-width:0.26458335"
         id="path93" />
      <path
         d="m 56.806354,234.35264 v 1.79317 h -0.478007 v -1.79317 q 0,-0.39016 -0.136943,-0.57361 -0.136942,-0.18345 -0.428914,-0.18345 -0.333313,0 -0.514181,0.23771 -0.178283,0.23513 -0.178283,0.67696 v 1.63556 h -0.475423 v -2.89388 h 0.475423 v 0.43408 q 0.126607,-0.24804 0.343648,-0.37465 0.217041,-0.12919 0.51418,-0.12919 0.441834,0 0.658875,0.29197 0.219625,0.28939 0.219625,0.8785 z"
         style="font-style:normal;font-variant:normal;font-weight:normal;font-stretch:normal;font-size:5.29166651px;font-family:'DejaVu Sans Mono';-inkscape-font-specification:'DejaVu Sans Mono';fill:#ffffff;stroke-width:0.26458335"
         id="path95" />
      <path
         d="m 59.490942,234.67562 q 0,-0.53485 -0.1757,-0.81132 -0.173116,-0.27905 -0.506429,-0.27905 -0.348816,0 -0.532267,0.27905 -0.183452,0.27647 -0.183452,0.81132 0,0.53485 0.183452,0.81649 0.186035,0.27905 0.537435,0.27905 0.328145,0 0.501261,-0.28164 0.1757,-0.28163 0.1757,-0.8139 z m 0.475423,1.28416 q 0,0.65112 -0.307475,0.98702 -0.307474,0.33589 -0.904337,0.33589 -0.196371,0 -0.410828,-0.0362 -0.214457,-0.0362 -0.428914,-0.10594 v -0.47025 q 0.253214,0.11885 0.45992,0.1757 0.206706,0.0568 0.379822,0.0568 0.384989,0 0.560689,-0.20929 0.1757,-0.20929 0.1757,-0.66404 v -0.0207 -0.32298 q -0.113688,0.24288 -0.310059,0.36174 -0.19637,0.11885 -0.478007,0.11885 -0.506429,0 -0.808736,-0.40566 -0.302307,-0.40566 -0.302307,-1.0852 0,-0.68213 0.302307,-1.08779 0.302307,-0.40566 0.808736,-0.40566 0.279053,0 0.47284,0.1111 0.193786,0.11111 0.315226,0.34365 v -0.37465 h 0.475423 z"
         style="font-style:normal;font-variant:normal;font-weight:normal;font-stretch:normal;font-size:5.29166651px;font-family:'DejaVu Sans Mono';-inkscape-font-specification:'DejaVu Sans Mono';fill:#ffffff;stroke-width:0.26458335"
         id="path97" />
      <path
         d="m 61.720781,235.35775 h 0.651123 v 0.78806 h -0.651123 z"
         style="font-style:normal;font-variant:normal;font-weight:normal;font-stretch:normal;font-size:5.29166651px;font-family:'DejaVu Sans Mono';-inkscape-font-specification:'DejaVu Sans Mono';fill:#ffffff;stroke-width:0.26458335"
         id="path99" />
      <path
         d="m 64.904051,235.35775 h 0.651123 v 0.78806 h -0.651123 z"
         style="font-style:normal;font-variant:normal;font-weight:normal;font-stretch:normal;font-size:5.29166651px;font-family:'DejaVu Sans Mono';-inkscape-font-specification:'DejaVu Sans Mono';fill:#ffffff;stroke-width:0.26458335"
         id="path101" />
      <path
         d="m 68.087316,235.35775 h 0.651124 v 0.78806 h -0.651124 z"
         style="font-style:normal;font-variant:normal;font-weight:normal;font-stretch:normal;font-size:5.29166651px;font-family:'DejaVu Sans Mono';-inkscape-font-specification:'DejaVu Sans Mono';fill:#ffffff;stroke-width:0.26458335"
         id="path103" />
    </g>
  </g>
</svg>
